<svg id="visual" viewBox="0 0 900 600" width="900" height="600" xmlns="http://www.w3.org/2000/svg" xmlns:xlink="http://www.w3.org/1999/xlink" version="1.1"><rect x="0" y="0" width="900" height="600" fill="#ffffff"></rect><defs><linearGradient id="grad1_0" x1="33.3%" y1="100%" x2="100%" y2="0%"><stop offset="20%" stop-color="#21ffa5" stop-opacity="1"></stop><stop offset="80%" stop-color="#21ffa5" stop-opacity="1"></stop></linearGradient></defs><defs><linearGradient id="grad1_1" x1="33.3%" y1="100%" x2="100%" y2="0%"><stop offset="20%" stop-color="#21ffa5" stop-opacity="1"></stop><stop offset="80%" stop-color="#61ffb2" stop-opacity="1"></stop></linearGradient></defs><defs><linearGradient id="grad1_2" x1="33.3%" y1="100%" x2="100%" y2="0%"><stop offset="20%" stop-color="#85ffbf" stop-opacity="1"></stop><stop offset="80%" stop-color="#61ffb2" stop-opacity="1"></stop></linearGradient></defs><defs><linearGradient id="grad1_3" x1="33.3%" y1="100%" x2="100%" y2="0%"><stop offset="20%" stop-color="#85ffbf" stop-opacity="1"></stop><stop offset="80%" stop-color="#a2ffcb" stop-opacity="1"></stop></linearGradient></defs><defs><linearGradient id="grad1_4" x1="33.3%" y1="100%" x2="100%" y2="0%"><stop offset="20%" stop-color="#bcffd8" stop-opacity="1"></stop><stop offset="80%" stop-color="#a2ffcb" stop-opacity="1"></stop></linearGradient></defs><defs><linearGradient id="grad1_5" x1="33.3%" y1="100%" x2="100%" y2="0%"><stop offset="20%" stop-color="#bcffd8" stop-opacity="1"></stop><stop offset="80%" stop-color="#d3ffe5" stop-opacity="1"></stop></linearGradient></defs><defs><linearGradient id="grad1_6" x1="33.3%" y1="100%" x2="100%" y2="0%"><stop offset="20%" stop-color="#eafff2" stop-opacity="1"></stop><stop offset="80%" stop-color="#d3ffe5" stop-opacity="1"></stop></linearGradient></defs><defs><linearGradient id="grad1_7" x1="33.3%" y1="100%" x2="100%" y2="0%"><stop offset="20%" stop-color="#eafff2" stop-opacity="1"></stop><stop offset="80%" stop-color="#ffffff" stop-opacity="1"></stop></linearGradient></defs><defs><linearGradient id="grad2_0" x1="0%" y1="100%" x2="66.7%" y2="0%"><stop offset="20%" stop-color="#21ffa5" stop-opacity="1"></stop><stop offset="80%" stop-color="#21ffa5" stop-opacity="1"></stop></linearGradient></defs><defs><linearGradient id="grad2_1" x1="0%" y1="100%" x2="66.7%" y2="0%"><stop offset="20%" stop-color="#61ffb2" stop-opacity="1"></stop><stop offset="80%" stop-color="#21ffa5" stop-opacity="1"></stop></linearGradient></defs><defs><linearGradient id="grad2_2" x1="0%" y1="100%" x2="66.7%" y2="0%"><stop offset="20%" stop-color="#61ffb2" stop-opacity="1"></stop><stop offset="80%" stop-color="#85ffbf" stop-opacity="1"></stop></linearGradient></defs><defs><linearGradient id="grad2_3" x1="0%" y1="100%" x2="66.7%" y2="0%"><stop offset="20%" stop-color="#a2ffcb" stop-opacity="1"></stop><stop offset="80%" stop-color="#85ffbf" stop-opacity="1"></stop></linearGradient></defs><defs><linearGradient id="grad2_4" x1="0%" y1="100%" x2="66.7%" y2="0%"><stop offset="20%" stop-color="#a2ffcb" stop-opacity="1"></stop><stop offset="80%" stop-color="#bcffd8" stop-opacity="1"></stop></linearGradient></defs><defs><linearGradient id="grad2_5" x1="0%" y1="100%" x2="66.7%" y2="0%"><stop offset="20%" stop-color="#d3ffe5" stop-opacity="1"></stop><stop offset="80%" stop-color="#bcffd8" stop-opacity="1"></stop></linearGradient></defs><defs><linearGradient id="grad2_6" x1="0%" y1="100%" x2="66.7%" y2="0%"><stop offset="20%" stop-color="#d3ffe5" stop-opacity="1"></stop><stop offset="80%" stop-color="#eafff2" stop-opacity="1"></stop></linearGradient></defs><defs><linearGradient id="grad2_7" x1="0%" y1="100%" x2="66.7%" y2="0%"><stop offset="20%" stop-color="#ffffff" stop-opacity="1"></stop><stop offset="80%" stop-color="#eafff2" stop-opacity="1"></stop></linearGradient></defs><g transform="translate(900, 600)"><path d="M-351.5 0C-285.4 -24.2 -219.2 -48.4 -200.5 -83C-181.7 -117.7 -210.4 -162.8 -208.6 -208.6C-206.8 -254.4 -174.4 -300.8 -134.5 -324.8C-94.7 -348.7 -47.3 -350.1 0 -351.5L0 0Z" fill="#f4fff9"></path><path d="M-307.6 0C-249.7 -21.2 -191.8 -42.3 -175.4 -72.7C-159 -103 -184.1 -142.5 -182.5 -182.5C-180.9 -222.6 -152.6 -263.2 -117.7 -284.2C-82.8 -305.1 -41.4 -306.4 0 -307.6L0 0Z" fill="#dfffec"></path><path d="M-263.7 0C-214 -18.1 -164.4 -36.3 -150.4 -62.3C-136.3 -88.3 -157.8 -122.1 -156.4 -156.4C-155.1 -190.8 -130.8 -225.6 -100.9 -243.6C-71 -261.5 -35.5 -262.6 0 -263.7L0 0Z" fill="#c8ffdf"></path><path d="M-219.7 0C-178.4 -15.1 -137 -30.2 -125.3 -51.9C-113.6 -73.6 -131.5 -101.8 -130.4 -130.4C-129.2 -159 -109 -188 -84.1 -203C-59.2 -217.9 -29.6 -218.8 0 -219.7L0 0Z" fill="#afffd2"></path><path d="M-175.8 0C-142.7 -12.1 -109.6 -24.2 -100.2 -41.5C-90.9 -58.8 -105.2 -81.4 -104.3 -104.3C-103.4 -127.2 -87.2 -150.4 -67.3 -162.4C-47.3 -174.4 -23.7 -175.1 0 -175.8L0 0Z" fill="#94ffc5"></path><path d="M-131.8 0C-107 -9.1 -82.2 -18.1 -75.2 -31.1C-68.2 -44.1 -78.9 -61.1 -78.2 -78.2C-77.5 -95.4 -65.4 -112.8 -50.4 -121.8C-35.5 -130.8 -17.8 -131.3 0 -131.8L0 0Z" fill="#74ffb8"></path><path d="M-87.9 0C-71.3 -6 -54.8 -12.1 -50.1 -20.8C-45.4 -29.4 -52.6 -40.7 -52.1 -52.1C-51.7 -63.6 -43.6 -75.2 -33.6 -81.2C-23.7 -87.2 -11.8 -87.5 0 -87.9L0 0Z" fill="#48ffab"></path><path d="M-43.9 0C-35.7 -3 -27.4 -6 -25.1 -10.4C-22.7 -14.7 -26.3 -20.4 -26.1 -26.1C-25.8 -31.8 -21.8 -37.6 -16.8 -40.6C-11.8 -43.6 -5.9 -43.8 0 -43.9L0 0Z" fill="#21ffa5"></path></g><g transform="translate(0, 0)"><path d="M351.5 0C354.6 52.4 357.6 104.8 324.8 134.5C291.9 164.3 223.1 171.3 180.3 180.3C137.5 189.3 120.6 200.3 94.9 229.1C69.2 258 34.6 304.8 0 351.5L0 0Z" fill="#f4fff9"></path><path d="M307.6 0C310.3 45.9 312.9 91.7 284.2 117.7C255.4 143.7 195.2 149.9 157.8 157.8C120.3 165.6 105.6 175.2 83 200.5C60.5 225.7 30.3 266.7 0 307.6L0 0Z" fill="#dfffec"></path><path d="M263.7 0C265.9 39.3 268.2 78.6 243.6 100.9C218.9 123.2 167.4 128.5 135.2 135.2C103.1 142 90.5 150.2 71.2 171.8C51.9 193.5 25.9 228.6 0 263.7L0 0Z" fill="#c8ffdf"></path><path d="M219.7 0C221.6 32.8 223.5 65.5 203 84.1C182.4 102.7 139.5 107.1 112.7 112.7C85.9 118.3 75.4 125.2 59.3 143.2C43.2 161.2 21.6 190.5 0 219.7L0 0Z" fill="#afffd2"></path><path d="M175.8 0C177.3 26.2 178.8 52.4 162.4 67.3C146 82.1 111.6 85.7 90.2 90.2C68.7 94.7 60.3 100.1 47.5 114.6C34.6 129 17.3 152.4 0 175.8L0 0Z" fill="#94ffc5"></path><path d="M131.8 0C133 19.7 134.1 39.3 121.8 50.4C109.5 61.6 83.7 64.2 67.6 67.6C51.6 71 45.2 75.1 35.6 85.9C25.9 96.7 13 114.3 0 131.8L0 0Z" fill="#74ffb8"></path><path d="M87.9 0C88.6 13.1 89.4 26.2 81.2 33.6C73 41.1 55.8 42.8 45.1 45.1C34.4 47.3 30.2 50.1 23.7 57.3C17.3 64.5 8.6 76.2 0 87.9L0 0Z" fill="#48ffab"></path><path d="M43.9 0C44.3 6.6 44.7 13.1 40.6 16.8C36.5 20.5 27.9 21.4 22.5 22.5C17.2 23.7 15.1 25 11.9 28.6C8.6 32.2 4.3 38.1 0 43.9L0 0Z" fill="#21ffa5"></path></g></svg>