<svg id="visual" viewBox="0 0 960 540" width="960" height="540" xmlns="http://www.w3.org/2000/svg" xmlns:xlink="http://www.w3.org/1999/xlink" version="1.1"><path d="M0 185L14.5 189.5C29 194 58 203 87.2 187.7C116.3 172.3 145.7 132.7 174.8 138.8C204 145 233 197 262 210.5C291 224 320 199 349 180.2C378 161.3 407 148.7 436.2 135.2C465.3 121.7 494.7 107.3 523.8 115.5C553 123.7 582 154.3 611 159.7C640 165 669 145 698 159.3C727 173.7 756 222.3 785.2 215.2C814.3 208 843.7 145 872.8 136.8C902 128.7 931 175.3 945.5 198.7L960 222L960 0L945.5 0C931 0 902 0 872.8 0C843.7 0 814.3 0 785.2 0C756 0 727 0 698 0C669 0 640 0 611 0C582 0 553 0 523.8 0C494.7 0 465.3 0 436.2 0C407 0 378 0 349 0C320 0 291 0 262 0C233 0 204 0 174.8 0C145.7 0 116.3 0 87.2 0C58 0 29 0 14.5 0L0 0Z" fill="#b5e7dc"></path><path d="M0 233L14.5 244.7C29 256.3 58 279.7 87.2 268.8C116.3 258 145.7 213 174.8 219.3C204 225.7 233 283.3 262 293.3C291 303.3 320 265.7 349 247.7C378 229.7 407 231.3 436.2 220.5C465.3 209.7 494.7 186.3 523.8 198C553 209.7 582 256.3 611 266.2C640 276 669 249 698 252.7C727 256.3 756 290.7 785.2 273.7C814.3 256.7 843.7 188.3 872.8 177.5C902 166.7 931 213.3 945.5 236.7L960 260L960 220L945.5 196.7C931 173.3 902 126.7 872.8 134.8C843.7 143 814.3 206 785.2 213.2C756 220.3 727 171.7 698 157.3C669 143 640 163 611 157.7C582 152.3 553 121.7 523.8 113.5C494.7 105.3 465.3 119.7 436.2 133.2C407 146.7 378 159.3 349 178.2C320 197 291 222 262 208.5C233 195 204 143 174.8 136.8C145.7 130.7 116.3 170.3 87.2 185.7C58 201 29 192 14.5 187.5L0 183Z" fill="#a4e2d3"></path><path d="M0 325L14.5 331.3C29 337.7 58 350.3 87.2 342.2C116.3 334 145.7 305 174.8 314C204 323 233 370 262 383.5C291 397 320 377 349 359.8C378 342.7 407 328.3 436.2 319.3C465.3 310.3 494.7 306.7 523.8 324.7C553 342.7 582 382.3 611 386C640 389.7 669 357.3 698 352.8C727 348.3 756 371.7 785.2 361.8C814.3 352 843.7 309 872.8 300C902 291 931 316 945.5 328.5L960 341L960 258L945.5 234.7C931 211.3 902 164.7 872.8 175.5C843.7 186.3 814.3 254.7 785.2 271.7C756 288.7 727 254.3 698 250.7C669 247 640 274 611 264.2C582 254.3 553 207.7 523.8 196C494.7 184.3 465.3 207.7 436.2 218.5C407 229.3 378 227.7 349 245.7C320 263.7 291 301.3 262 291.3C233 281.3 204 223.7 174.8 217.3C145.7 211 116.3 256 87.2 266.8C58 277.7 29 254.3 14.5 242.7L0 231Z" fill="#93dcca"></path><path d="M0 401L14.5 402.7C29 404.3 58 407.7 87.2 400.3C116.3 393 145.7 375 174.8 381.3C204 387.7 233 418.3 262 428.3C291 438.3 320 427.7 349 419.7C378 411.7 407 406.3 436.2 399.2C465.3 392 494.7 383 523.8 392C553 401 582 428 611 434.2C640 440.3 669 425.7 698 421.2C727 416.7 756 422.3 785.2 410.7C814.3 399 843.7 370 872.8 367.2C902 364.3 931 387.7 945.5 399.3L960 411L960 339L945.5 326.5C931 314 902 289 872.8 298C843.7 307 814.3 350 785.2 359.8C756 369.7 727 346.3 698 350.8C669 355.3 640 387.7 611 384C582 380.3 553 340.7 523.8 322.7C494.7 304.7 465.3 308.3 436.2 317.3C407 326.3 378 340.7 349 357.8C320 375 291 395 262 381.5C233 368 204 321 174.8 312C145.7 303 116.3 332 87.2 340.2C58 348.3 29 335.7 14.5 329.3L0 323Z" fill="#82cebb"></path><path d="M0 541L14.5 541C29 541 58 541 87.2 541C116.3 541 145.7 541 174.8 541C204 541 233 541 262 541C291 541 320 541 349 541C378 541 407 541 436.2 541C465.3 541 494.7 541 523.8 541C553 541 582 541 611 541C640 541 669 541 698 541C727 541 756 541 785.2 541C814.3 541 843.7 541 872.8 541C902 541 931 541 945.5 541L960 541L960 409L945.5 397.3C931 385.7 902 362.3 872.8 365.2C843.7 368 814.3 397 785.2 408.7C756 420.3 727 414.7 698 419.2C669 423.7 640 438.3 611 432.2C582 426 553 399 523.8 390C494.7 381 465.3 390 436.2 397.2C407 404.3 378 409.7 349 417.7C320 425.7 291 436.3 262 426.3C233 416.3 204 385.7 174.8 379.3C145.7 373 116.3 391 87.2 398.3C58 405.7 29 402.3 14.5 400.7L0 399Z" fill="#72c0ac"></path></svg>