<svg id="visual" viewBox="0 0 900 450" width="900" height="450" xmlns="http://www.w3.org/2000/svg" xmlns:xlink="http://www.w3.org/1999/xlink" version="1.1"><g stroke-width="1" stroke-linejoin="bevel"><path d="M438 206L520 262L473 193Z" fill="#124a2a" stroke="#124a2a"></path><path d="M438 206L419 256L520 262Z" fill="#009473" stroke="#009473"></path><path d="M419 256L497 340L520 262Z" fill="#0d3417" stroke="#0d3417"></path><path d="M419 256L414 331L497 340Z" fill="#0d3417" stroke="#0d3417"></path><path d="M639 215L501 121L473 193Z" fill="#145635" stroke="#145635"></path><path d="M473 193L383 114L438 206Z" fill="#0c8765" stroke="#0c8765"></path><path d="M501 121L383 114L473 193Z" fill="#062000" stroke="#062000"></path><path d="M438 206L313 183L419 256Z" fill="#156240" stroke="#156240"></path><path d="M419 256L329 322L414 331Z" fill="#127a58" stroke="#127a58"></path><path d="M276 262L329 322L419 256Z" fill="#156240" stroke="#156240"></path><path d="M520 450L596 392L497 340Z" fill="#062000" stroke="#062000"></path><path d="M497 340L626 305L520 262Z" fill="#146e4c" stroke="#146e4c"></path><path d="M520 262L639 215L473 193Z" fill="#145635" stroke="#145635"></path><path d="M626 305L639 215L520 262Z" fill="#127a58" stroke="#127a58"></path><path d="M383 114L313 183L438 206Z" fill="#0c8765" stroke="#0c8765"></path><path d="M639 215L561 73L501 121Z" fill="#103f21" stroke="#103f21"></path><path d="M501 121L423 0L383 114Z" fill="#0c8765" stroke="#0c8765"></path><path d="M520 450L497 340L377 450Z" fill="#127a58" stroke="#127a58"></path><path d="M497 340L596 392L626 305Z" fill="#124a2a" stroke="#124a2a"></path><path d="M313 183L276 262L419 256Z" fill="#146e4c" stroke="#146e4c"></path><path d="M626 305L668 209L639 215Z" fill="#092a0e" stroke="#092a0e"></path><path d="M639 215L668 209L561 73Z" fill="#156240" stroke="#156240"></path><path d="M721 308L668 209L626 305Z" fill="#146e4c" stroke="#146e4c"></path><path d="M383 114L321 112L313 183Z" fill="#127a58" stroke="#127a58"></path><path d="M313 183L239 194L276 262Z" fill="#124a2a" stroke="#124a2a"></path><path d="M423 0L321 112L383 114Z" fill="#124a2a" stroke="#124a2a"></path><path d="M377 450L497 340L414 331Z" fill="#103f21" stroke="#103f21"></path><path d="M333 450L377 450L329 322Z" fill="#156240" stroke="#156240"></path><path d="M329 322L377 450L414 331Z" fill="#0d3417" stroke="#0d3417"></path><path d="M321 112L239 194L313 183Z" fill="#145635" stroke="#145635"></path><path d="M276 262L226 337L329 322Z" fill="#127a58" stroke="#127a58"></path><path d="M520 450L595 450L596 392Z" fill="#0c8765" stroke="#0c8765"></path><path d="M699 382L721 308L626 305Z" fill="#062000" stroke="#062000"></path><path d="M239 194L227 258L276 262Z" fill="#124a2a" stroke="#124a2a"></path><path d="M636 0L513 0L561 73Z" fill="#009473" stroke="#009473"></path><path d="M561 73L513 0L501 121Z" fill="#156240" stroke="#156240"></path><path d="M226 337L333 450L329 322Z" fill="#156240" stroke="#156240"></path><path d="M513 0L423 0L501 121Z" fill="#156240" stroke="#156240"></path><path d="M321 112L189 94L239 194Z" fill="#156240" stroke="#156240"></path><path d="M699 382L626 305L596 392Z" fill="#0d3417" stroke="#0d3417"></path><path d="M227 258L226 337L276 262Z" fill="#146e4c" stroke="#146e4c"></path><path d="M678 450L699 382L596 392Z" fill="#092a0e" stroke="#092a0e"></path><path d="M787 345L761 274L721 308Z" fill="#156240" stroke="#156240"></path><path d="M721 308L761 274L668 209Z" fill="#092a0e" stroke="#092a0e"></path><path d="M710 67L636 0L561 73Z" fill="#146e4c" stroke="#146e4c"></path><path d="M595 450L678 450L596 392Z" fill="#145635" stroke="#145635"></path><path d="M699 382L787 345L721 308Z" fill="#092a0e" stroke="#092a0e"></path><path d="M710 67L561 73L668 209Z" fill="#124a2a" stroke="#124a2a"></path><path d="M790 176L710 67L668 209Z" fill="#103f21" stroke="#103f21"></path><path d="M423 0L265 0L321 112Z" fill="#127a58" stroke="#127a58"></path><path d="M239 194L128 248L227 258Z" fill="#156240" stroke="#156240"></path><path d="M265 0L189 94L321 112Z" fill="#124a2a" stroke="#124a2a"></path><path d="M227 258L128 248L226 337Z" fill="#062000" stroke="#062000"></path><path d="M761 274L790 176L668 209Z" fill="#145635" stroke="#145635"></path><path d="M771 450L787 345L699 382Z" fill="#146e4c" stroke="#146e4c"></path><path d="M761 274L900 232L790 176Z" fill="#103f21" stroke="#103f21"></path><path d="M130 181L128 248L239 194Z" fill="#103f21" stroke="#103f21"></path><path d="M226 337L166 450L333 450Z" fill="#103f21" stroke="#103f21"></path><path d="M790 176L770 67L710 67Z" fill="#146e4c" stroke="#146e4c"></path><path d="M710 67L729 0L636 0Z" fill="#0d3417" stroke="#0d3417"></path><path d="M189 94L130 181L239 194Z" fill="#127a58" stroke="#127a58"></path><path d="M770 67L729 0L710 67Z" fill="#127a58" stroke="#127a58"></path><path d="M128 248L138 373L226 337Z" fill="#103f21" stroke="#103f21"></path><path d="M678 450L771 450L699 382Z" fill="#092a0e" stroke="#092a0e"></path><path d="M138 373L166 450L226 337Z" fill="#103f21" stroke="#103f21"></path><path d="M265 0L174 0L189 94Z" fill="#0c8765" stroke="#0c8765"></path><path d="M189 94L118 80L130 181Z" fill="#156240" stroke="#156240"></path><path d="M174 0L118 80L189 94Z" fill="#124a2a" stroke="#124a2a"></path><path d="M130 181L0 254L128 248Z" fill="#0d3417" stroke="#0d3417"></path><path d="M900 110L801 0L770 67Z" fill="#092a0e" stroke="#092a0e"></path><path d="M770 67L801 0L729 0Z" fill="#0c8765" stroke="#0c8765"></path><path d="M900 110L770 67L790 176Z" fill="#124a2a" stroke="#124a2a"></path><path d="M900 333L900 232L761 274Z" fill="#145635" stroke="#145635"></path><path d="M900 333L761 274L787 345Z" fill="#092a0e" stroke="#092a0e"></path><path d="M174 0L119 0L118 80Z" fill="#103f21" stroke="#103f21"></path><path d="M900 232L900 181L790 176Z" fill="#124a2a" stroke="#124a2a"></path><path d="M900 450L900 333L787 345Z" fill="#0c8765" stroke="#0c8765"></path><path d="M0 346L75 450L138 373Z" fill="#009473" stroke="#009473"></path><path d="M138 373L75 450L166 450Z" fill="#0c8765" stroke="#0c8765"></path><path d="M0 346L138 373L128 248Z" fill="#124a2a" stroke="#124a2a"></path><path d="M0 254L130 181L0 169Z" fill="#156240" stroke="#156240"></path><path d="M900 181L900 110L790 176Z" fill="#124a2a" stroke="#124a2a"></path><path d="M0 169L130 181L118 80Z" fill="#092a0e" stroke="#092a0e"></path><path d="M771 450L900 450L787 345Z" fill="#103f21" stroke="#103f21"></path><path d="M0 51L0 169L118 80Z" fill="#062000" stroke="#062000"></path><path d="M0 254L0 346L128 248Z" fill="#009473" stroke="#009473"></path><path d="M900 110L900 0L801 0Z" fill="#062000" stroke="#062000"></path><path d="M119 0L0 51L118 80Z" fill="#009473" stroke="#009473"></path><path d="M0 346L0 450L75 450Z" fill="#127a58" stroke="#127a58"></path><path d="M119 0L0 0L0 51Z" fill="#009473" stroke="#009473"></path></g></svg>