<svg id="visual" viewBox="0 0 900 600" width="900" height="600" xmlns="http://www.w3.org/2000/svg" xmlns:xlink="http://www.w3.org/1999/xlink" version="1.1"><path d="M0 31L69 43L138 73L208 73L277 31L346 43L415 31L485 79L554 85L623 67L692 91L762 85L831 31L900 73L900 0L831 0L762 0L692 0L623 0L554 0L485 0L415 0L346 0L277 0L208 0L138 0L69 0L0 0Z" fill="#00cc8e"></path><path d="M0 199L69 163L138 205L208 163L277 193L346 169L415 109L485 199L554 163L623 115L692 205L762 151L831 175L900 157L900 71L831 29L762 83L692 89L623 65L554 83L485 77L415 29L346 41L277 29L208 71L138 71L69 41L0 29Z" fill="#00a784"></path><path d="M0 397L69 247L138 301L208 415L277 409L346 325L415 331L485 367L554 343L623 349L692 289L762 235L831 325L900 307L900 155L831 173L762 149L692 203L623 113L554 161L485 197L415 107L346 167L277 191L208 161L138 203L69 161L0 197Z" fill="#038373"></path><path d="M0 439L69 313L138 385L208 457L277 457L346 361L415 379L485 403L554 385L623 421L692 331L762 271L831 367L900 349L900 305L831 323L762 233L692 287L623 347L554 341L485 365L415 329L346 323L277 407L208 413L138 299L69 245L0 395Z" fill="#038373"></path><path d="M0 559L69 529L138 529L208 535L277 547L346 487L415 493L485 553L554 505L623 523L692 559L762 487L831 553L900 541L900 347L831 365L762 269L692 329L623 419L554 383L485 401L415 377L346 359L277 455L208 455L138 383L69 311L0 437Z" fill="#00a784"></path><path d="M0 601L69 601L138 601L208 601L277 601L346 601L415 601L485 601L554 601L623 601L692 601L762 601L831 601L900 601L900 539L831 551L762 485L692 557L623 521L554 503L485 551L415 491L346 485L277 545L208 533L138 527L69 527L0 557Z" fill="#00cc8e"></path></svg>